<?xml version="1.0" standalone="no"?>
<!DOCTYPE svg PUBLIC "-//W3C//DTD SVG 20010904//EN"
 "http://www.w3.org/TR/2001/REC-SVG-20010904/DTD/svg10.dtd">
<svg version="1.0" xmlns="http://www.w3.org/2000/svg"
 width="512.000000pt" height="512.000000pt" viewBox="0 0 512.000000 512.000000"
 preserveAspectRatio="xMidYMid meet">

<g transform="translate(0.000000,512.000000) scale(0.100000,-0.100000)"
fill="#000000" stroke="none">
<path fill="red" d="M2320 4930 c-504 -92 -910 -435 -1078 -911 -69 -194 -95 -416 -73
-609 50 -429 303 -1020 764 -1789 201 -335 605 -941 628 -941 16 0 281 371
462 647 637 971 958 1756 934 2284 -30 642 -469 1163 -1106 1310 -130 30 -392
35 -531 9z m394 -615 c245 -51 443 -208 551 -438 54 -114 69 -185 69 -327 0
-149 -15 -215 -79 -345 -118 -238 -341 -393 -610 -427 -320 -39 -642 140 -784
435 -60 123 -75 192 -75 337 -1 149 14 215 78 345 134 270 389 431 689 434 48
1 121 -6 161 -14z"/>
</g>
</svg>
